<?xml version="1.0" encoding="UTF-8"?>
<svg id="SmallFinal" xmlns="http://www.w3.org/2000/svg" viewBox="0 0 64 64">
  <path d="M48.87,21.96C47.6,9.62,37.17,0,24.5,0,10.97,0,0,10.97,0,24.5h0c0,12.67,9.62,23.1,21.96,24.37,2.71,8.76,10.88,15.13,20.54,15.13,11.87,0,21.5-9.63,21.5-21.5,0-9.66-6.37-17.82-15.13-20.54ZM4,24.5C4,13.2,13.2,4,24.5,4c10.15,0,18.57,7.42,20.2,17.11-.72-.07-1.45-.11-2.2-.11-11.87,0-21.5,9.63-21.5,21.5,0,.74.04,1.47.11,2.2-9.69-1.62-17.11-10.05-17.11-20.2ZM55.23,44.5h-10.65v10.65h-4v-10.65h-10.65v-4h10.65v-10.65h4v10.65h10.65v4Z"/>
</svg>