<svg id="Vrstva_1" xmlns="http://www.w3.org/2000/svg" xmlns:xlink="http://www.w3.org/1999/xlink" viewBox="0 0 512 512">
  <defs>
    <linearGradient id="Nepojmenovaný_přechod_12" data-name="Nepojmenovaný přechod 12" x1="284.42" y1="36.32" x2="4.77" y2="252.5" gradientUnits="userSpaceOnUse">
      <stop offset="0" stop-color="#eae200"/>
      <stop offset=".34" stop-color="#d42900"/>
      <stop offset="1" stop-color="#0007bf"/>
    </linearGradient>
    <linearGradient id="Nepojmenovaný_přechod_12-2" data-name="Nepojmenovaný přechod 12" x1="521.96" y1="36.32" x2="242.31" y2="252.5" xlink:href="#Nepojmenovaný_přechod_12"/>
    <linearGradient id="Nepojmenovaný_přechod_12-3" data-name="Nepojmenovaný přechod 12" y1="194.19" y2="410.37" xlink:href="#Nepojmenovaný_přechod_12"/>
    <linearGradient id="Nepojmenovaný_přechod_12-4" data-name="Nepojmenovaný přechod 12" x1="521.96" y1="194.19" x2="242.31" y2="410.37" xlink:href="#Nepojmenovaný_přechod_12"/>
    <linearGradient id="Nepojmenovaný_přechod_13" data-name="Nepojmenovaný přechod 13" x1="25.41" y1="59.57" x2="487.46" y2="59.57" gradientUnits="userSpaceOnUse">
      <stop offset="0" stop-color="#0007bf"/>
      <stop offset=".66" stop-color="#d42900"/>
      <stop offset="1" stop-color="#eae200"/>
    </linearGradient>
  </defs>
  <rect x="1" width="511" height="406.08" rx="19.65" ry="19.65"/>
  <rect x="25" y="80.12" width="219.72" height="143.62" rx="7.86" ry="7.86" fill="url(#Nepojmenovaný_přechod_12)"/>
  <rect x="262.54" y="80.12" width="219.72" height="143.62" rx="7.86" ry="7.86" fill="url(#Nepojmenovaný_přechod_12-2)"/>
  <rect x="25" y="238" width="219.72" height="143.62" rx="7.86" ry="7.86" fill="url(#Nepojmenovaný_přechod_12-3)"/>
  <rect x="262.54" y="238" width="219.72" height="143.62" rx="7.86" ry="7.86" fill="url(#Nepojmenovaný_přechod_12-4)"/>
  <line x1="31.36" y1="30" x2="100.3" y2="30" fill="none" stroke="#818080" stroke-linecap="round" stroke-miterlimit="10" stroke-width="11.89"/>
  <g>
    <path d="M481.05,512v-171.78s.02-.09.03-.13c1.15-6.15-2.24-12.25-8.07-14.51l-96.57-37.53c-1.51-.59-3.11-.88-4.71-.88h0c-1.6,0-3.19.29-4.71.88l-95.38,37.05c-5.62,1.44-9.77,6.53-9.77,12.6v174.31h219.17Z" fill="#fff"/>
    <polyline points="371.74 300.17 468.3 337.69 468.05 337.69 468.05 512 274.88 512 274.88 337.69 275.13 337.69 371.74 300.17"/>
    <path d="M351.14,468.3h23.02v-40.9h23.02c5.77,0,9.89,1.26,12.45,3.83,2.57,2.57,4.22,6.54,4.99,12.02.58,4.26,1.02,8.58,1.31,13.18.19,4.05,1.01,8.06,2.36,11.87h-.03l.05.05s-.01-.03-.02-.05h23.03c-1.16-1.65-1.99-3.44-2.42-5.38-.53-2.18-.92-4.41-1.16-6.64-.24-2.42-.44-4.65-.53-6.88s-.19-4.22-.29-5.86c-.19-2.62-.58-5.28-1.11-7.9-.48-2.57-1.36-4.99-2.57-7.27-1.16-2.18-2.71-4.12-4.55-5.72-2.04-1.7-4.46-2.96-7.03-3.59v-.29c5.28-1.89,9.79-5.48,12.7-10.27,2.67-4.89,3.97-10.42,3.83-15.99.05-3.83-.68-7.66-2.13-11.19-1.41-3.44-3.49-6.54-6.15-9.16-2.76-2.67-6.06-4.8-9.64-6.2-3.95-1.51-8.13-2.28-12.31-2.28-.13,0-.25,0-.38,0h-56.4v104.62" fill="#fff"/>
    <polyline points="307.91 468.35 330.93 468.35 330.93 363.69 307.91 363.69 307.91 468.35" fill="#fff"/>
    <g>
      <path d="M411.27,385.05c-2.62-2.28-6.59-3.44-11.92-3.44h-25.15v29.46h25.2c5.28,0,9.21-1.16,11.92-3.49,2.71-2.33,3.97-6.15,3.97-11.44s-1.36-8.77-4.02-11.05v-.05Z"/>
      <path d="M399.35,381.61c5.33,0,9.3,1.16,11.92,3.44v.05c2.67,2.28,4.02,5.77,4.02,11.05s-1.26,9.11-3.97,11.44c-2.71,2.33-6.64,3.49-11.92,3.49h-25.2v-29.46h25.15"/>
    </g>
  </g>
  <line x1="31.36" y1="59.57" x2="481.52" y2="59.57" fill="none" stroke="url(#Nepojmenovaný_přechod_13)" stroke-linecap="round" stroke-miterlimit="10" stroke-width="11.89"/>
</svg>