<svg id="Vrstva_1" xmlns="http://www.w3.org/2000/svg" xmlns:xlink="http://www.w3.org/1999/xlink" viewBox="0 0 512 512">
  <defs>
    <linearGradient id="Nepojmenovaný_přechod_12" data-name="Nepojmenovaný přechod 12" x1="284.42" y1="36.32" x2="4.77" y2="252.5" gradientUnits="userSpaceOnUse">
      <stop offset="0" stop-color="#eae200"/>
      <stop offset=".34" stop-color="#d42900"/>
      <stop offset="1" stop-color="#0007bf"/>
    </linearGradient>
    <linearGradient id="Nepojmenovaný_přechod_12-2" data-name="Nepojmenovaný přechod 12" x1="521.96" y1="36.32" x2="242.31" y2="252.5" xlink:href="#Nepojmenovaný_přechod_12"/>
    <linearGradient id="Nepojmenovaný_přechod_12-3" data-name="Nepojmenovaný přechod 12" y1="194.19" x2="4.77" y2="410.37" xlink:href="#Nepojmenovaný_přechod_12"/>
    <linearGradient id="Nepojmenovaný_přechod_12-4" data-name="Nepojmenovaný přechod 12" x1="521.96" y1="194.19" x2="242.31" y2="410.37" xlink:href="#Nepojmenovaný_přechod_12"/>
    <linearGradient id="Nepojmenovaný_přechod_13" data-name="Nepojmenovaný přechod 13" x1="25.41" y1="59.57" x2="487.46" y2="59.57" gradientUnits="userSpaceOnUse">
      <stop offset="0" stop-color="#0007bf"/>
      <stop offset=".66" stop-color="#d42900"/>
      <stop offset="1" stop-color="#eae200"/>
    </linearGradient>
  </defs>
  <rect x="1" width="511" height="406.08" rx="19.65" ry="19.65"/>
  <rect x="25" y="80.12" width="219.72" height="143.62" rx="7.86" ry="7.86" fill="url(#Nepojmenovaný_přechod_12)"/>
  <rect x="262.54" y="80.12" width="219.72" height="143.62" rx="7.86" ry="7.86" fill="url(#Nepojmenovaný_přechod_12-2)"/>
  <rect x="25" y="238" width="219.72" height="143.62" rx="7.86" ry="7.86" fill="url(#Nepojmenovaný_přechod_12-3)"/>
  <rect x="262.54" y="238" width="219.72" height="143.62" rx="7.86" ry="7.86" fill="url(#Nepojmenovaný_přechod_12-4)"/>
  <line x1="31.36" y1="30" x2="100.3" y2="30" fill="none" stroke="#818080" stroke-linecap="round" stroke-miterlimit="10" stroke-width="11.89"/>
  <line x1="31.36" y1="59.57" x2="481.52" y2="59.57" fill="none" stroke="url(#Nepojmenovaný_přechod_13)" stroke-linecap="round" stroke-miterlimit="10" stroke-width="11.89"/>
  <g>
    <circle cx="245.28" cy="223.74" r="119.5" fill="#009fe3"/>
    <g>
      <path d="M271.58,242.4l31.57-31.57c12.05-12.05,12.96-31.55,1.59-44.23-12.31-13.73-33.51-14.16-46.38-1.29l-26.89,26.89c6.38-.73,12.86.06,18.97,2.36l18.34-18.34c6.08-6.08,16.61-6.73,23.13-1.13,7.5,6.46,7.82,17.84.95,24.71l-32.06,32.06c-5.1,5.1-12.89,6.67-19.38,3.53-4.46-2.15-7.55-5.95-8.87-10.33,0,0,0,0,0,0l-11.37,11.37c1.99,3.37,4.59,6.35,7.7,8.81,12.77,10.11,31.2,8.66,42.72-2.85Z" fill="#fff"/>
      <path d="M234.78,216c.05,0,.12,0,.19,0,.22-.01.46-.03.7-.03.26,0,.52,0,.78,0,.2,0,.39.02.58.03.35.02.71.05,1.06.09.22.03.44.06.66.09.31.05.6.11.9.17.27.06.54.12.8.19.21.06.41.11.62.18.35.11.69.23,1.03.36.15.06.28.11.41.16.39.16.78.34,1.17.54.09.05.21.11.32.16.43.23.82.46,1.19.7l.26.17c.42.28.8.57,1.17.86l.14.12c.45.37.83.72,1.19,1.08,1.98,1.98,3.41,4.4,4.2,7.03l11.37-11.37c-1.36-2.3-3.01-4.42-4.91-6.32h0c-.35-.35-.71-.69-1.08-1.02l-.39-.34c-.23-.2-.47-.41-.72-.61-.16-.13-.32-.26-.48-.39-.21-.17-.43-.34-.65-.5l-.15-.12c-.13-.1-.25-.19-.38-.28-.1-.07-.21-.14-.31-.22l-.19-.13c-.44-.3-.87-.6-1.32-.87l-.34-.21c-.28-.17-.56-.33-.84-.49l-.24-.13c-2.7-1.49-5.55-2.57-8.52-3.24l-.16-.04c-1.43-.31-2.92-.53-4.4-.64l-.32-.02c-.32-.02-.63-.04-.95-.05h-.36c-.59-.02-1.19-.02-1.79,0h-.32c-.19.02-.4.03-.6.04h-.16c-.2.02-.41.04-.61.05-.23.02-.47.04-.7.07-.24.03-.48.06-.73.09l-.18.02c-.14.02-.29.04-.43.06-.43.06-.85.13-1.27.21l-.45.09c-.31.06-.62.13-.92.2-.16.04-.31.08-.46.11-.35.09-.65.17-.95.25l-.45.13c-.44.13-.87.27-1.3.42-4.55,1.59-8.6,4.13-12.04,7.57l-30.15,30.15c-12.45,12.45-12.45,32.71,0,45.16,12.45,12.45,32.71,12.45,45.16,0l24.75-24.75c-6.38.73-12.86-.06-18.97-2.36l-16.45,16.45c-6.57,6.57-17.26,6.57-23.83,0-6.57-6.57-6.57-17.26,0-23.83l30.15-30.15c2.84-2.84,6.63-4.57,10.66-4.87Z" fill="#fff"/>
    </g>
  </g>
  <g>
    <path d="M481.05,512v-171.78s.02-.09.03-.13c1.15-6.15-2.24-12.25-8.07-14.51l-96.57-37.53c-1.51-.59-3.11-.88-4.71-.88h0c-1.6,0-3.19.29-4.71.88l-95.38,37.05c-5.62,1.44-9.77,6.53-9.77,12.6v174.31h219.17Z" fill="#fff"/>
    <polyline points="371.74 300.17 468.3 337.69 468.05 337.69 468.05 512 274.88 512 274.88 337.69 275.13 337.69 371.74 300.17"/>
    <path d="M351.14,468.3h23.02v-40.9h23.02c5.77,0,9.89,1.26,12.45,3.83,2.57,2.57,4.22,6.54,4.99,12.02.58,4.26,1.02,8.58,1.31,13.18.19,4.05,1.01,8.06,2.36,11.87h-.03l.05.05s-.01-.03-.02-.05h23.03c-1.16-1.65-1.99-3.44-2.42-5.38-.53-2.18-.92-4.41-1.16-6.64-.24-2.42-.44-4.65-.53-6.88s-.19-4.22-.29-5.86c-.19-2.62-.58-5.28-1.11-7.9-.48-2.57-1.36-4.99-2.57-7.27-1.16-2.18-2.71-4.12-4.55-5.72-2.04-1.7-4.46-2.96-7.03-3.59v-.29c5.28-1.89,9.79-5.48,12.7-10.27,2.67-4.89,3.97-10.42,3.83-15.99.05-3.83-.68-7.66-2.13-11.19-1.41-3.44-3.49-6.54-6.15-9.16-2.76-2.67-6.06-4.8-9.64-6.2-3.95-1.51-8.13-2.28-12.31-2.28-.13,0-.25,0-.38,0h-56.4v104.62" fill="#fff"/>
    <polyline points="307.91 468.35 330.93 468.35 330.93 363.69 307.91 363.69 307.91 468.35" fill="#fff"/>
    <g>
      <path d="M411.27,385.05c-2.62-2.28-6.59-3.44-11.92-3.44h-25.15v29.46h25.2c5.28,0,9.21-1.16,11.92-3.49,2.71-2.33,3.97-6.15,3.97-11.44s-1.36-8.77-4.02-11.05v-.05Z"/>
      <path d="M399.35,381.61c5.33,0,9.3,1.16,11.92,3.44v.05c2.67,2.28,4.02,5.77,4.02,11.05s-1.26,9.11-3.97,11.44c-2.71,2.33-6.64,3.49-11.92,3.49h-25.2v-29.46h25.15"/>
    </g>
  </g>
</svg>